<svg width="50" height="50" viewBox="0 0 50 50" fill="none" xmlns="http://www.w3.org/2000/svg">
<circle cx="25" cy="25" r="23.5" stroke="#848484" stroke-width="3"/>
<path d="M25.3555 32.1348C24.2344 32.1348 23.5645 31.4102 23.5645 30.2344V26.3242H19.832C18.7109 26.3242 18 25.668 18 24.5742C18 23.4941 18.7109 22.8379 19.832 22.8379H23.5645V18.9004C23.5645 17.7383 24.248 17 25.3555 17C26.4629 17 27.1328 17.7383 27.1328 18.9004V22.8379H30.8516C31.9863 22.8379 32.6973 23.4941 32.6973 24.5742C32.6973 25.668 31.9727 26.3242 30.8379 26.3242H27.1328V30.2344C27.1328 31.4102 26.4629 32.1348 25.3555 32.1348Z" fill="#848484"/>
</svg>
