<svg width="46" height="46" viewBox="0 0 46 46" fill="none" xmlns="http://www.w3.org/2000/svg">
<rect x="1" y="1" width="44" height="44" rx="6.5" stroke="#848484" stroke-width="2"/>
<path d="M22.0645 31.6445C20.9434 31.6445 20.2734 30.9199 20.2734 29.7441V25.834H16.541C15.4199 25.834 14.709 25.1777 14.709 24.084C14.709 23.0039 15.4199 22.3477 16.541 22.3477H20.2734V18.4102C20.2734 17.248 20.957 16.5098 22.0645 16.5098C23.1719 16.5098 23.8418 17.248 23.8418 18.4102V22.3477H27.5605C28.6953 22.3477 29.4062 23.0039 29.4062 24.084C29.4062 25.1777 28.6816 25.834 27.5469 25.834H23.8418V29.7441C23.8418 30.9199 23.1719 31.6445 22.0645 31.6445Z" fill="#848484"/>
</svg>
