<svg width="18" height="30" viewBox="0 0 18 30" fill="none" xmlns="http://www.w3.org/2000/svg">
<path d="M0.8125 14.7188C0.822917 14.3229 0.901042 13.9635 1.04688 13.6406C1.19271 13.3073 1.42188 12.9844 1.73438 12.6719L13.5469 1.10938C14.026 0.640625 14.6042 0.40625 15.2812 0.40625C15.7396 0.40625 16.1562 0.520833 16.5312 0.75C16.9167 0.96875 17.224 1.26562 17.4531 1.64062C17.6823 2.01562 17.7969 2.43229 17.7969 2.89062C17.7969 3.58854 17.526 4.19792 16.9844 4.71875L6.6875 14.7031L16.9844 24.7031C17.526 25.2448 17.7969 25.8594 17.7969 26.5469C17.7969 27.0052 17.6823 27.4219 17.4531 27.7969C17.224 28.1719 16.9167 28.4688 16.5312 28.6875C16.1562 28.9167 15.7396 29.0312 15.2812 29.0312C14.6042 29.0312 14.026 28.7917 13.5469 28.3125L1.73438 16.75C1.41146 16.4375 1.17708 16.1198 1.03125 15.7969C0.885417 15.4635 0.8125 15.1042 0.8125 14.7188Z" fill="white"/>
</svg>
