<svg width="9" height="14" viewBox="0 0 9 14" fill="none" xmlns="http://www.w3.org/2000/svg">
<path d="M8.12402 7.06445C8.12402 7.39941 8.00781 7.67969 7.7207 7.95312L2.55273 13.0186C2.34766 13.2236 2.09473 13.3262 1.79395 13.3262C1.19238 13.3262 0.700195 12.8408 0.700195 12.2393C0.700195 11.9316 0.823242 11.6582 1.04883 11.4326L5.55371 7.05762L1.04883 2.68945C0.823242 2.4707 0.700195 2.19043 0.700195 1.88965C0.700195 1.29492 1.19238 0.802734 1.79395 0.802734C2.09473 0.802734 2.34766 0.905273 2.55273 1.11035L7.7207 6.17578C8.00098 6.44238 8.12402 6.72266 8.12402 7.06445Z" fill="#848484"/>
</svg>
