<svg width="25" height="23" viewBox="0 0 25 23" fill="none" xmlns="http://www.w3.org/2000/svg">
<path d="M2.875 22.2734C2.52344 22.2734 2.20703 22.1875 1.92578 22.0156C1.64453 21.8516 1.41797 21.6289 1.24609 21.3477C1.07422 21.0664 0.988281 20.7539 0.988281 20.4102C0.988281 19.8945 1.1875 19.4336 1.58594 19.0273L9.8125 11.0469V11.9961L1.58594 4.03906C1.1875 3.64844 0.988281 3.19141 0.988281 2.66797C0.988281 2.32422 1.07422 2.01172 1.24609 1.73047C1.41797 1.44922 1.64453 1.22656 1.92578 1.0625C2.20703 0.890625 2.52344 0.804688 2.875 0.804688C3.38281 0.804688 3.8125 0.980469 4.16406 1.33203L13.0352 10.0039C13.2695 10.2305 13.4414 10.4688 13.5508 10.7188C13.668 10.9688 13.7305 11.2422 13.7383 11.5391C13.7383 12.0938 13.5039 12.6055 13.0352 13.0742L4.17578 21.7344C3.99609 21.9141 3.79688 22.0469 3.57812 22.1328C3.36719 22.2266 3.13281 22.2734 2.875 22.2734ZM13.3516 22.2734C13 22.2734 12.6797 22.1875 12.3906 22.0156C12.1094 21.8516 11.8828 21.6289 11.7109 21.3477C11.5391 21.0664 11.4531 20.7539 11.4531 20.4102C11.4531 19.8945 11.6562 19.4336 12.0625 19.0273L20.2773 11.0469V11.9961L12.0625 4.03906C11.6562 3.64844 11.4531 3.19141 11.4531 2.66797C11.4531 2.32422 11.5391 2.01172 11.7109 1.73047C11.8828 1.44922 12.1094 1.22656 12.3906 1.0625C12.6797 0.890625 13 0.804688 13.3516 0.804688C13.8516 0.804688 14.2812 0.980469 14.6406 1.33203L23.5117 10.0039C23.7461 10.2305 23.918 10.4688 24.0273 10.7188C24.1445 10.9688 24.2031 11.2422 24.2031 11.5391C24.2031 12.0938 23.9727 12.6055 23.5117 13.0742L14.6406 21.7344C14.4609 21.9141 14.2617 22.0469 14.043 22.1328C13.832 22.2266 13.6016 22.2734 13.3516 22.2734Z" fill="#848484"/>
</svg>
