<svg width="28" height="35" viewBox="0 0 28 35" fill="none" xmlns="http://www.w3.org/2000/svg">
<path d="M11.4375 10.6562H21.6406C21.9948 10.6562 22.3021 10.526 22.5625 10.2656C22.8229 10.0052 22.9531 9.69271 22.9531 9.32812C22.9531 8.96354 22.8229 8.65104 22.5625 8.39062C22.3021 8.13021 21.9948 8 21.6406 8H11.4375C11.0729 8 10.7604 8.13021 10.5 8.39062C10.25 8.65104 10.125 8.96354 10.125 9.32812C10.125 9.69271 10.25 10.0052 10.5 10.2656C10.7604 10.526 11.0729 10.6562 11.4375 10.6562ZM11.4375 15.3438H19.1875C19.5521 15.3438 19.8646 15.2135 20.125 14.9531C20.3854 14.6823 20.5156 14.3646 20.5156 14C20.5156 13.6458 20.3854 13.3385 20.125 13.0781C19.8646 12.8177 19.5521 12.6875 19.1875 12.6875H11.4375C11.0729 12.6875 10.7604 12.8177 10.5 13.0781C10.25 13.3385 10.125 13.6458 10.125 14C10.125 14.3646 10.25 14.6823 10.5 14.9531C10.7604 15.2135 11.0729 15.3438 11.4375 15.3438ZM5.46875 34.3906C3.69792 34.3906 2.34375 33.9167 1.40625 32.9688C0.46875 32.0312 0 30.6771 0 28.9062V5.53125C0 3.73958 0.46875 2.36979 1.40625 1.42188C2.35417 0.473958 3.71354 0 5.48438 0H22.2188C24 0 25.3594 0.479167 26.2969 1.4375C27.2344 2.38542 27.7031 3.75 27.7031 5.53125V21.875C27.7031 22.6875 27.5781 23.3281 27.3281 23.7969C27.0885 24.2552 26.6979 24.7031 26.1562 25.1406C25.5 25.724 25.0833 26.3854 24.9062 27.125C24.7396 27.8542 24.7812 28.5417 25.0312 29.1875C25.2917 29.8438 25.7292 30.3333 26.3438 30.6562C26.7188 30.875 27.0417 31.1354 27.3125 31.4375C27.5938 31.7396 27.7344 32.125 27.7344 32.5938C27.7344 33.1146 27.5677 33.5417 27.2344 33.875C26.901 34.2188 26.474 34.3906 25.9531 34.3906H5.46875ZM6.3125 30.8125H21.75C21.3438 30.0417 21.1302 29.2083 21.1094 28.3125C21.099 27.4062 21.2969 26.5312 21.7031 25.6875C21.5885 25.7083 21.4531 25.7188 21.2969 25.7188H6.39062C5.49479 25.7188 4.80729 25.9635 4.32812 26.4531C3.84896 26.9427 3.60938 27.5417 3.60938 28.25C3.60938 28.9896 3.83333 29.599 4.28125 30.0781C4.72917 30.5677 5.40625 30.8125 6.3125 30.8125ZM5.45312 22.9531C5.73438 22.9531 5.97917 22.8542 6.1875 22.6562C6.39583 22.4479 6.5 22.1979 6.5 21.9062V4.01562C6.5 3.72396 6.39583 3.47917 6.1875 3.28125C5.97917 3.07292 5.73438 2.96875 5.45312 2.96875C5.17188 2.96875 4.92708 3.07292 4.71875 3.28125C4.52083 3.47917 4.42188 3.72396 4.42188 4.01562V21.9062C4.42188 22.1979 4.52083 22.4479 4.71875 22.6562C4.92708 22.8542 5.17188 22.9531 5.45312 22.9531Z" fill="white"/>
</svg>
