<svg width="36" height="36" viewBox="0 0 36 36" fill="none" xmlns="http://www.w3.org/2000/svg">
<path d="M0.980469 17.918C0.980469 15.6133 2.83594 13.7383 5.16016 13.7383H14.2227V4.69531C14.2227 2.37109 16.0781 0.515625 18.3828 0.515625C20.6875 0.515625 22.5625 2.37109 22.5625 4.69531V13.7383H31.625C33.9297 13.7383 35.7852 15.6133 35.7852 17.918C35.7852 20.2227 33.9297 22.0977 31.625 22.0977H22.5625V31.1602C22.5625 33.4648 20.6875 35.3203 18.3828 35.3203C16.0781 35.3203 14.2227 33.4648 14.2227 31.1602V22.0977H5.16016C2.83594 22.0977 0.980469 20.2227 0.980469 17.918Z" fill="#FFFFFF"/>
</svg>
