<svg width="76" height="75" viewBox="0 0 76 75" fill="none" xmlns="http://www.w3.org/2000/svg">
<rect y="4.75" width="25" height="20" rx="3.75" fill="white"/>
<path d="M50.5 36.5C50.5 34.4289 52.1789 32.75 54.25 32.75H65.5C71.0228 32.75 75.5 37.2272 75.5 42.75V51.5C75.5 53.5711 73.8211 55.25 71.75 55.25H60.5C54.9772 55.25 50.5 50.7728 50.5 45.25V36.5Z" fill="white"/>
<rect y="31.5" width="25" height="25" rx="12.5" fill="white"/>
<path d="M24 58.75C24 56.6789 25.6789 55 27.75 55H45.25C47.3211 55 49 56.6789 49 58.75V62.5C49 69.4036 43.4036 75 36.5 75V75C29.5964 75 24 69.4036 24 62.5V58.75Z" fill="white"/>
<path d="M51.75 6.20108C51.75 3.38158 54.7447 1.57057 57.2417 2.88008L72.2417 10.7467C73.4764 11.3943 74.25 12.6735 74.25 14.0677V15.4322C74.25 16.8265 73.4764 18.1057 72.2417 18.7533L57.2417 26.6199C54.7447 27.9294 51.75 26.1184 51.75 23.2989V6.20108Z" fill="white"/>
</svg>
