<svg width="32" height="8" viewBox="0 0 32 8" fill="none" xmlns="http://www.w3.org/2000/svg">
<path d="M4.3125 7.21875C3.66667 7.21875 3.07812 7.0625 2.54688 6.75C2.01562 6.42708 1.58854 6 1.26562 5.46875C0.953125 4.9375 0.796875 4.35417 0.796875 3.71875C0.796875 3.07292 0.953125 2.48438 1.26562 1.95312C1.58854 1.42188 2.01562 1 2.54688 0.6875C3.07812 0.364583 3.66667 0.203125 4.3125 0.203125C4.94792 0.203125 5.53125 0.364583 6.0625 0.6875C6.59375 1 7.01562 1.42188 7.32812 1.95312C7.65104 2.48438 7.8125 3.07292 7.8125 3.71875C7.8125 4.35417 7.65104 4.9375 7.32812 5.46875C7.01562 6 6.59375 6.42708 6.0625 6.75C5.53125 7.0625 4.94792 7.21875 4.3125 7.21875ZM16.1094 7.21875C15.4635 7.21875 14.875 7.0625 14.3438 6.75C13.8125 6.42708 13.3854 6 13.0625 5.46875C12.75 4.9375 12.5938 4.35417 12.5938 3.71875C12.5938 3.07292 12.75 2.48438 13.0625 1.95312C13.3854 1.42188 13.8125 1 14.3438 0.6875C14.875 0.364583 15.4635 0.203125 16.1094 0.203125C16.7448 0.203125 17.3281 0.364583 17.8594 0.6875C18.3906 1 18.8125 1.42188 19.125 1.95312C19.4479 2.48438 19.6094 3.07292 19.6094 3.71875C19.6094 4.35417 19.4479 4.9375 19.125 5.46875C18.8125 6 18.3906 6.42708 17.8594 6.75C17.3281 7.0625 16.7448 7.21875 16.1094 7.21875ZM27.9062 7.21875C27.2604 7.21875 26.6719 7.0625 26.1406 6.75C25.6094 6.42708 25.1823 6 24.8594 5.46875C24.5469 4.9375 24.3906 4.35417 24.3906 3.71875C24.3906 3.07292 24.5469 2.48438 24.8594 1.95312C25.1823 1.42188 25.6094 1 26.1406 0.6875C26.6719 0.364583 27.2604 0.203125 27.9062 0.203125C28.5521 0.203125 29.1354 0.364583 29.6562 0.6875C30.1875 1 30.6094 1.42188 30.9219 1.95312C31.2448 2.48438 31.4062 3.07292 31.4062 3.71875C31.4062 4.35417 31.2448 4.9375 30.9219 5.46875C30.6094 6 30.1875 6.42708 29.6562 6.75C29.1354 7.0625 28.5521 7.21875 27.9062 7.21875Z" fill="white"/>
</svg>
