<svg width="40" height="34" viewBox="0 0 40 34" fill="none" xmlns="http://www.w3.org/2000/svg">
<path d="M21.1875 33.2344C18.0208 33.2344 15.1406 32.8438 12.5469 32.0625C9.95312 31.2812 7.71875 30.1667 5.84375 28.7188C3.97917 27.2708 2.53646 25.5417 1.51562 23.5312C0.505208 21.5208 0 19.2917 0 16.8438C0 14.3646 0.53125 12.0938 1.59375 10.0312C2.66667 7.96875 4.1875 6.19271 6.15625 4.70312C8.13542 3.20312 10.4896 2.04688 13.2188 1.23438C15.9583 0.411458 18.9948 0 22.3281 0C24.9427 0 27.3177 0.265625 29.4531 0.796875C31.599 1.32812 33.4427 2.09375 34.9844 3.09375C36.526 4.08333 37.7135 5.26562 38.5469 6.64062C39.3802 8.01562 39.7969 9.55208 39.7969 11.25C39.7969 12.3854 39.5833 13.3542 39.1562 14.1562C38.7292 14.9583 38.1719 15.6406 37.4844 16.2031C36.8073 16.7656 36.0885 17.25 35.3281 17.6562C34.5677 18.0625 33.849 18.4323 33.1719 18.7656C32.4948 19.0885 31.9427 19.4167 31.5156 19.75C31.0885 20.0833 30.875 20.4635 30.875 20.8906C30.875 21.349 31 21.7604 31.25 22.125C31.5104 22.4792 31.8021 22.849 32.125 23.2344C32.4583 23.6198 32.75 24.0833 33 24.625C33.2604 25.1562 33.3906 25.8385 33.3906 26.6719C33.3906 27.974 32.8802 29.1146 31.8594 30.0938C30.8385 31.0833 29.4115 31.8542 27.5781 32.4062C25.7552 32.9583 23.625 33.2344 21.1875 33.2344ZM21.125 26.9688C22.0417 26.9688 22.8542 26.7656 23.5625 26.3594C24.2812 25.9427 24.8438 25.3802 25.25 24.6719C25.6562 23.9635 25.8594 23.1562 25.8594 22.25C25.8594 21.3854 25.6458 20.599 25.2188 19.8906C24.7917 19.1719 24.2188 18.599 23.5 18.1719C22.7917 17.7448 22 17.5312 21.125 17.5312C20.2604 17.5312 19.474 17.7448 18.7656 18.1719C18.0573 18.599 17.4896 19.1719 17.0625 19.8906C16.6354 20.599 16.4219 21.3854 16.4219 22.25C16.4219 23.1146 16.6354 23.9062 17.0625 24.625C17.4896 25.3333 18.0573 25.901 18.7656 26.3281C19.474 26.7552 20.2604 26.9688 21.125 26.9688ZM7.70312 18.9688C8.44271 18.9688 9.07292 18.7031 9.59375 18.1719C10.125 17.6302 10.3906 16.9896 10.3906 16.25C10.3906 15.5104 10.125 14.8802 9.59375 14.3594C9.07292 13.8385 8.44271 13.5781 7.70312 13.5781C6.97396 13.5781 6.33854 13.8438 5.79688 14.375C5.26562 14.9062 5 15.5312 5 16.25C5 16.9896 5.26562 17.6302 5.79688 18.1719C6.32812 18.7031 6.96354 18.9688 7.70312 18.9688ZM14.1406 13.1406C15.0469 13.1406 15.8281 12.8229 16.4844 12.1875C17.1406 11.5417 17.4688 10.7552 17.4688 9.82812C17.4688 8.91146 17.1406 8.13542 16.4844 7.5C15.8281 6.86458 15.0469 6.54688 14.1406 6.54688C13.2135 6.54688 12.4219 6.86458 11.7656 7.5C11.1198 8.13542 10.7969 8.91146 10.7969 9.82812C10.7969 10.7552 11.125 11.5417 11.7812 12.1875C12.4375 12.8229 13.224 13.1406 14.1406 13.1406ZM22.9531 10.4844C23.7031 10.4844 24.3385 10.224 24.8594 9.70312C25.3906 9.17188 25.6562 8.53125 25.6562 7.78125C25.6562 7.03125 25.3906 6.39583 24.8594 5.875C24.3385 5.34375 23.7031 5.07812 22.9531 5.07812C22.2135 5.07812 21.5729 5.34375 21.0312 5.875C20.4896 6.39583 20.2188 7.03125 20.2188 7.78125C20.2188 8.53125 20.4896 9.17188 21.0312 9.70312C21.5729 10.224 22.2135 10.4844 22.9531 10.4844ZM30.875 11.7969C31.4896 11.7969 32.0104 11.5781 32.4375 11.1406C32.8646 10.6927 33.0781 10.1771 33.0781 9.59375C33.0781 9.02083 32.8646 8.51042 32.4375 8.0625C32.0104 7.60417 31.4896 7.375 30.875 7.375C30.2708 7.375 29.75 7.59375 29.3125 8.03125C28.875 8.46875 28.6562 8.98958 28.6562 9.59375C28.6562 10.2083 28.875 10.7292 29.3125 11.1562C29.75 11.5833 30.2708 11.7969 30.875 11.7969Z" fill="white"/>
</svg>
