<svg width="34" height="33" viewBox="0 0 34 33" fill="none" xmlns="http://www.w3.org/2000/svg">
<path d="M16.5 33C14.2292 33 12.0938 32.5677 10.0938 31.7031C8.10417 30.849 6.35417 29.6667 4.84375 28.1562C3.33333 26.6458 2.14583 24.8958 1.28125 22.9062C0.427083 20.9062 0 18.7708 0 16.5C0 14.2188 0.427083 12.0833 1.28125 10.0938C2.14583 8.09375 3.33333 6.33854 4.84375 4.82812C6.35417 3.31771 8.10417 2.13542 10.0938 1.28125C12.0938 0.427083 14.2292 0 16.5 0C18.7812 0 20.9167 0.427083 22.9062 1.28125C24.9062 2.13542 26.6615 3.31771 28.1719 4.82812C29.6823 6.33854 30.8646 8.09375 31.7188 10.0938C32.5833 12.0833 33.0156 14.2188 33.0156 16.5C33.0156 18.7708 32.5833 20.9062 31.7188 22.9062C30.8646 24.8958 29.6823 26.6458 28.1719 28.1562C26.6615 29.6667 24.9062 30.849 22.9062 31.7031C20.9167 32.5677 18.7812 33 16.5 33ZM9.65625 24.5625H23.3594C23.776 24.5625 24.0885 24.4375 24.2969 24.1875C24.5052 23.9271 24.6094 23.6146 24.6094 23.25C24.6094 22.8125 24.4479 22.2552 24.125 21.5781C23.8125 20.8906 23.3229 20.2031 22.6562 19.5156C22 18.8177 21.1615 18.2396 20.1406 17.7812C19.1198 17.3125 17.9115 17.0781 16.5156 17.0781C15.1094 17.0781 13.8958 17.3125 12.875 17.7812C11.8542 18.2396 11.0156 18.8177 10.3594 19.5156C9.70312 20.2031 9.21354 20.8906 8.89062 21.5781C8.56771 22.2552 8.40625 22.8125 8.40625 23.25C8.40625 23.6146 8.51042 23.9271 8.71875 24.1875C8.92708 24.4375 9.23958 24.5625 9.65625 24.5625ZM16.5156 15.8594C17.2656 15.8698 17.9479 15.6823 18.5625 15.2969C19.1771 14.901 19.6667 14.3646 20.0312 13.6875C20.4062 13.0104 20.5938 12.25 20.5938 11.4062C20.5938 10.6146 20.4062 9.89062 20.0312 9.23438C19.6667 8.56771 19.1771 8.03646 18.5625 7.64062C17.9479 7.24479 17.2656 7.04688 16.5156 7.04688C15.7656 7.04688 15.0781 7.24479 14.4531 7.64062C13.8385 8.03646 13.3438 8.56771 12.9688 9.23438C12.6042 9.89062 12.4219 10.6146 12.4219 11.4062C12.4219 12.25 12.6042 13.0104 12.9688 13.6875C13.3438 14.3542 13.8385 14.8854 14.4531 15.2812C15.0781 15.6667 15.7656 15.8594 16.5156 15.8594Z" fill="white"/>
</svg>
