<svg width="13" height="8" viewBox="0 0 13 8" fill="none" xmlns="http://www.w3.org/2000/svg">
<path d="M6.2627 7.43066C5.92773 7.43066 5.64746 7.30762 5.36719 7.02734L0.308594 1.85254C0.103516 1.64062 0.000976562 1.39453 0.000976562 1.10059C0.000976562 0.492188 0.486328 0 1.08789 0C1.38867 0 1.66895 0.123047 1.89453 0.348633L6.26953 4.86035L10.6377 0.348633C10.8633 0.123047 11.1436 0 11.4375 0C12.0391 0 12.5244 0.492188 12.5244 1.10059C12.5244 1.40137 12.4219 1.64746 12.2168 1.85254L7.1582 7.02734C6.8916 7.30078 6.60449 7.43066 6.2627 7.43066Z" fill="white"/>
</svg>
