<svg width="811" height="232" viewBox="0 0 811 232" fill="none" xmlns="http://www.w3.org/2000/svg">
<rect x="283" y="168" width="248" height="32" rx="5" fill="white"/>
<rect y="168" width="248" height="32" rx="5" fill="white"/>
<path d="M7 67C7 64.2386 9.23858 62 12 62H235C237.761 62 240 64.2386 240 67V171H7V67Z" fill="white"/>
<rect x="165.24" y="106.935" width="7.72321" height="6.17857" rx="1.15848" fill="#252525"/>
<path d="M180.841 116.743C180.841 116.104 181.359 115.585 181.999 115.585H185.475C187.181 115.585 188.564 116.968 188.564 118.674V121.377C188.564 122.017 188.045 122.536 187.406 122.536H183.93C182.224 122.536 180.841 121.153 180.841 119.447V116.743Z" fill="#252525"/>
<rect x="165.24" y="115.199" width="7.72321" height="7.72321" rx="3.86161" fill="#252525"/>
<path d="M172.654 123.617C172.654 122.978 173.173 122.459 173.813 122.459H179.219C179.859 122.459 180.378 122.978 180.378 123.617V124.776C180.378 126.909 178.649 128.638 176.516 128.638V128.638C174.383 128.638 172.654 126.909 172.654 124.776V123.617Z" fill="#252525"/>
<path d="M180.841 107.383C180.841 106.512 181.766 105.953 182.537 106.358L187.171 108.788C187.553 108.988 187.792 109.383 187.792 109.814V110.235C187.792 110.666 187.553 111.061 187.171 111.261L182.537 113.691C181.766 114.096 180.841 113.536 180.841 112.665V107.383Z" fill="#252525"/>
<rect x="290" y="200" width="32" height="32" rx="16" fill="white"/>
<rect x="7" y="200" width="32" height="32" rx="16" fill="white"/>
<rect x="491" y="200" width="32" height="32" rx="16" fill="white"/>
<rect x="208" y="200" width="32" height="32" rx="16" fill="white"/>
<rect x="561" y="34" width="115" height="28" rx="5" fill="white"/>
<rect x="763" y="200" width="32" height="32" rx="16" fill="white"/>
<rect x="575" y="200" width="32" height="32" rx="16" fill="white"/>
<rect x="568" y="55" width="101" height="121" rx="5" fill="white"/>
<rect x="755" y="63" width="29" height="66" rx="5" fill="white"/>
<rect x="692" y="90" width="15" height="27" rx="5" fill="white"/>
<path d="M685 100.5C685 92.4919 691.492 86 699.5 86V86C707.508 86 714 92.4919 714 100.5V101.938C714 102.524 713.524 103 712.937 103H686.062C685.476 103 685 102.524 685 101.938V100.5Z" fill="white"/>
<rect x="662" y="110" width="141" height="66" rx="5" fill="white"/>
<rect x="561" y="168" width="250" height="32" rx="5" fill="white"/>
<circle cx="769" cy="36" r="10" fill="white"/>
<circle cx="756" cy="10" r="10" fill="white"/>
<path d="M61.0938 123.141C61.0312 123.766 60.6875 124.104 60.0625 124.156C59.7708 124.156 59.5156 124.062 59.2969 123.875C59.0885 123.677 58.9844 123.432 58.9844 123.141V115.766C58.9948 115.474 59.1042 115.234 59.3125 115.047C59.5208 114.849 59.7708 114.75 60.0625 114.75H66.625C67.5417 114.781 68.2344 114.984 68.7031 115.359C69.1719 115.724 69.5104 116.141 69.7188 116.609C69.9271 117.078 70.0312 117.552 70.0312 118.031C70.0312 118.531 69.9271 119.016 69.7188 119.484C69.5208 119.953 69.1823 120.375 68.7031 120.75C68.2344 121.115 67.6354 121.292 66.9062 121.281H62.9688C62.6771 121.281 62.4323 121.177 62.2344 120.969C62.026 120.771 61.9219 120.526 61.9219 120.234C61.9219 119.943 62.0208 119.698 62.2188 119.5C62.4271 119.292 62.6771 119.188 62.9688 119.188H67C67.1979 119.188 67.3594 119.125 67.4844 119C67.6198 118.865 67.7188 118.714 67.7812 118.547C67.8438 118.37 67.875 118.193 67.875 118.016C67.875 117.849 67.8438 117.682 67.7812 117.516C67.7188 117.339 67.6198 117.188 67.4844 117.062C67.3594 116.927 67.1979 116.854 67 116.844H61.5C61.2292 116.854 61.0938 116.99 61.0938 117.25V123.141ZM76.9631 121.547C76.9631 121.255 77.0621 121.01 77.26 120.812C77.4683 120.604 77.7183 120.5 78.01 120.5H80.4006L79.9944 119.344C79.8277 118.917 79.661 118.516 79.4944 118.141C79.3381 117.755 79.1558 117.406 78.9475 117.094C78.76 116.781 78.5465 116.615 78.3069 116.594C78.0569 116.615 77.8329 116.781 77.635 117.094C77.4371 117.406 77.2548 117.755 77.0881 118.141C76.9319 118.516 76.7704 118.917 76.6038 119.344L75.1194 123.406C75.0152 123.625 74.8798 123.807 74.7131 123.953C74.5569 124.089 74.3173 124.156 73.9944 124.156C73.6923 124.156 73.4423 124.052 73.2444 123.844C73.0569 123.635 72.9735 123.385 72.9944 123.094C73.0048 122.958 73.036 122.833 73.0881 122.719L74.8069 118.281C75.286 117.115 75.7652 116.172 76.2444 115.453C76.7131 114.745 77.4006 114.385 78.3069 114.375C79.2027 114.385 79.885 114.745 80.3538 115.453C80.8329 116.151 81.3121 117.094 81.7913 118.281L83.51 122.719C83.5621 122.833 83.5933 122.958 83.6038 123.094C83.6246 123.385 83.536 123.635 83.3381 123.844C83.1506 124.052 82.9058 124.156 82.6038 124.156C82.26 124.156 82.0048 124.089 81.8381 123.953C81.6819 123.807 81.5517 123.625 81.4475 123.406L81.1506 122.594H78.01C77.7183 122.594 77.4735 122.49 77.2756 122.281C77.0673 122.083 76.9631 121.839 76.9631 121.547ZM87.9731 114.5C88.2648 114.5 88.5148 114.599 88.7231 114.797C88.9315 114.984 89.0408 115.224 89.0513 115.516V119.281C89.0408 119.708 89.0669 120.104 89.1294 120.469C89.2023 120.823 89.369 121.141 89.6294 121.422C89.8898 121.703 90.2179 121.854 90.6138 121.875H95.6138C95.9054 121.885 96.145 121.995 96.3325 122.203C96.5304 122.411 96.6294 122.661 96.6294 122.953C96.619 123.234 96.5148 123.474 96.3169 123.672C96.1294 123.859 95.895 123.958 95.6138 123.969H90.0825C89.3533 123.927 88.7492 123.682 88.27 123.234C87.8013 122.776 87.4627 122.219 87.2544 121.562C87.0565 120.906 86.9523 120.208 86.9419 119.469V115.516C86.9523 115.234 87.0565 115 87.2544 114.812C87.4523 114.615 87.6919 114.51 87.9731 114.5ZM102.78 114.75H103.499H108.811C109.103 114.76 109.342 114.87 109.53 115.078C109.728 115.286 109.827 115.536 109.827 115.828C109.775 116.453 109.436 116.792 108.811 116.844H103.311C102.915 116.865 102.587 117.016 102.327 117.297C102.066 117.578 101.874 117.901 101.749 118.266C101.634 118.62 101.577 118.984 101.577 119.359C101.577 119.734 101.634 120.104 101.749 120.469C101.874 120.823 102.066 121.141 102.327 121.422C102.587 121.703 102.915 121.854 103.311 121.875H108.811C109.103 121.885 109.342 121.995 109.53 122.203C109.728 122.411 109.827 122.661 109.827 122.953C109.816 123.234 109.712 123.474 109.514 123.672C109.327 123.859 109.092 123.958 108.811 123.969H103.077H102.78C102.051 123.927 101.447 123.651 100.967 123.141C100.499 122.62 100.16 122.031 99.9519 121.375C99.754 120.719 99.655 120.047 99.655 119.359C99.655 118.672 99.7592 118 99.9675 117.344C100.176 116.688 100.514 116.104 100.983 115.594C101.452 115.073 102.051 114.792 102.78 114.75ZM109.796 119.297C109.796 119.589 109.691 119.833 109.483 120.031C109.285 120.24 109.04 120.344 108.749 120.344H104.03C103.738 120.344 103.488 120.245 103.28 120.047C103.082 119.839 102.983 119.589 102.983 119.297C102.983 119.005 103.082 118.755 103.28 118.547C103.488 118.349 103.738 118.25 104.03 118.25H108.749C109.04 118.25 109.285 118.354 109.483 118.562C109.691 118.76 109.796 119.005 109.796 119.297ZM112.853 115.797C112.853 115.505 112.951 115.26 113.149 115.062C113.358 114.854 113.608 114.75 113.899 114.75H122.993C123.285 114.75 123.535 114.849 123.743 115.047C123.941 115.255 124.04 115.505 124.04 115.797C124.04 116.089 123.936 116.339 123.728 116.547C123.53 116.745 123.285 116.844 122.993 116.844H119.509V123.172C119.446 123.797 119.103 124.135 118.478 124.188C118.186 124.188 117.931 124.094 117.712 123.906C117.504 123.708 117.399 123.464 117.399 123.172V116.844H113.899C113.608 116.844 113.363 116.74 113.165 116.531C112.957 116.333 112.853 116.089 112.853 115.797ZM127.144 115.797C127.144 115.505 127.243 115.26 127.441 115.062C127.649 114.854 127.899 114.75 128.191 114.75H137.284C137.576 114.75 137.826 114.849 138.034 115.047C138.232 115.255 138.331 115.505 138.331 115.797C138.331 116.089 138.227 116.339 138.019 116.547C137.821 116.745 137.576 116.844 137.284 116.844H133.8V123.172C133.738 123.797 133.394 124.135 132.769 124.188C132.477 124.188 132.222 124.094 132.003 123.906C131.795 123.708 131.691 123.464 131.691 123.172V116.844H128.191C127.899 116.844 127.654 116.74 127.456 116.531C127.248 116.333 127.144 116.089 127.144 115.797ZM144.638 114.75H145.357H150.669C150.961 114.76 151.201 114.87 151.388 115.078C151.586 115.286 151.685 115.536 151.685 115.828C151.633 116.453 151.294 116.792 150.669 116.844H145.169C144.774 116.865 144.445 117.016 144.185 117.297C143.925 117.578 143.732 117.901 143.607 118.266C143.492 118.62 143.435 118.984 143.435 119.359C143.435 119.734 143.492 120.104 143.607 120.469C143.732 120.823 143.925 121.141 144.185 121.422C144.445 121.703 144.774 121.854 145.169 121.875H150.669C150.961 121.885 151.201 121.995 151.388 122.203C151.586 122.411 151.685 122.661 151.685 122.953C151.675 123.234 151.57 123.474 151.372 123.672C151.185 123.859 150.951 123.958 150.669 123.969H144.935H144.638C143.909 123.927 143.305 123.651 142.826 123.141C142.357 122.62 142.018 122.031 141.81 121.375C141.612 120.719 141.513 120.047 141.513 119.359C141.513 118.672 141.617 118 141.826 117.344C142.034 116.688 142.372 116.104 142.841 115.594C143.31 115.073 143.909 114.792 144.638 114.75ZM151.654 119.297C151.654 119.589 151.55 119.833 151.341 120.031C151.143 120.24 150.899 120.344 150.607 120.344H145.888C145.596 120.344 145.346 120.245 145.138 120.047C144.94 119.839 144.841 119.589 144.841 119.297C144.841 119.005 144.94 118.755 145.138 118.547C145.346 118.349 145.596 118.25 145.888 118.25H150.607C150.899 118.25 151.143 118.354 151.341 118.562C151.55 118.76 151.654 119.005 151.654 119.297Z" fill="black"/>
<rect x="608" y="63" width="48" height="66" rx="5" fill="#252525"/>
<path d="M616.692 100.785C616.897 99.7342 617.821 99 618.891 99C619.95 99 620.871 99.7259 621.119 100.756L622.308 105.703C622.434 106.225 622.697 106.703 623.07 107.089L624.522 108.587C625.087 109.171 625.865 109.5 626.677 109.5H637.022C637.89 109.5 638.715 109.124 639.285 108.47L640.556 107.01C640.848 106.674 641.062 106.277 641.182 105.848L642.613 100.73C642.899 99.7073 643.831 99 644.894 99C645.976 99 646.917 99.7286 647.147 100.786C648.251 105.845 650.906 120.273 646.733 126C644.822 128.624 639.315 129 639.315 129H624.479C624.479 129 618.947 128.645 617.061 126C613.257 120.668 615.694 105.914 616.692 100.785Z" fill="white"/>
<rect x="627" y="117" width="3" height="6" fill="#252525"/>
<rect x="635" y="117" width="3" height="6" fill="#252525"/>
</svg>
