<svg width="15" height="15" viewBox="0 0 15 15" fill="none" xmlns="http://www.w3.org/2000/svg">
<path d="M4.73047 4.0332C4.55273 4.0332 4.39551 3.90332 4.36816 3.71875C4.14258 2.5498 4.2041 2.61133 3.02832 2.37891C2.84375 2.34473 2.71387 2.20117 2.71387 2.0166C2.71387 1.83203 2.85059 1.68164 3.02832 1.64746C4.2041 1.42188 4.14258 1.4834 4.36816 0.321289C4.39551 0.129883 4.5459 0 4.73047 0C4.91504 0 5.06543 0.129883 5.09277 0.321289C5.31836 1.4834 5.25684 1.42188 6.42578 1.64746C6.61719 1.68164 6.74707 1.83203 6.74707 2.0166C6.74707 2.20117 6.61719 2.34473 6.42578 2.37891C5.25684 2.61133 5.31836 2.5498 5.09277 3.71875C5.06543 3.90332 4.91504 4.0332 4.73047 4.0332ZM14.7588 4.23828C14.7588 5.84473 13.6514 7.19824 12.1611 7.56055C12.1953 7.3623 12.209 7.15723 12.209 6.94531C12.209 4.89453 10.5479 3.2334 8.49707 3.2334C8.32617 3.2334 8.15527 3.24023 7.99121 3.26758C8.40137 1.8252 9.7207 0.772461 11.293 0.772461C13.2139 0.772461 14.7588 2.32422 14.7588 4.23828ZM2.00977 8.01855C0.90918 8.01855 0 7.10938 0 6.00879C0 4.9082 0.90918 3.99902 2.00977 3.99902C3.10352 3.99902 4.0127 4.9082 4.0127 6.00879C4.0127 7.10938 3.10352 8.01855 2.00977 8.01855ZM8.49707 9.74121C6.95215 9.74121 5.70117 8.49023 5.70117 6.94531C5.70117 5.40039 6.94531 4.14941 8.49707 4.14941C10.042 4.14941 11.293 5.40039 11.293 6.94531C11.293 8.49707 10.042 9.74121 8.49707 9.74121ZM12.3047 14.5811C12.0723 14.5811 11.8945 14.4102 11.874 14.1777C11.6895 12.6055 11.6758 12.5918 10.0215 12.332C9.77539 12.291 9.61816 12.127 9.61816 11.9014C9.61816 11.6895 9.76855 11.5117 9.9873 11.4707C11.7305 11.1426 11.6963 11.1494 11.874 9.625C11.8945 9.39258 12.0723 9.22168 12.3047 9.22168C12.5371 9.22168 12.7217 9.38574 12.7422 9.61816C12.9336 11.2383 12.9473 11.2451 14.6016 11.4639C14.834 11.498 14.998 11.6689 14.998 11.9014C14.998 12.1201 14.8408 12.291 14.6221 12.332C12.8926 12.6602 12.9336 12.6465 12.7422 14.1982C12.708 14.4238 12.5303 14.5811 12.3047 14.5811ZM4.73047 14.3213C3.54785 14.3213 2.57715 13.3506 2.57715 12.168C2.57715 10.9922 3.54785 10.0283 4.73047 10.0283C5.89941 10.0283 6.87012 10.999 6.87012 12.168C6.87012 13.3438 5.89941 14.3213 4.73047 14.3213Z" fill="white"/>
</svg>
