<svg width="18" height="13" viewBox="0 0 18 13" fill="none" xmlns="http://www.w3.org/2000/svg">
<path d="M2.41309 12.3594C0.854492 12.3594 0 11.5117 0 9.95996V2.39941C0 0.847656 0.854492 0 2.30371 0H14.752C16.3037 0 17.165 0.847656 17.165 2.39941V9.95996C17.165 11.5117 16.3105 12.3594 14.8613 12.3594H2.41309ZM8.03223 6.45312C8.20996 6.61035 8.3877 6.69238 8.5791 6.69238C8.77051 6.69238 8.94824 6.61035 9.12598 6.45312L14.4785 1.62695H2.68652L8.03223 6.45312ZM11.8809 5.87891L15.5312 9.5293V2.59082L11.8809 5.87891ZM1.62695 2.59082V9.5293L5.27734 5.87891L1.62695 2.59082ZM2.48145 10.7324H14.6836H14.7178L10.8213 6.83594L10.001 7.56738C9.53613 7.99121 9.10547 8.16895 8.5791 8.16895C8.05957 8.16895 7.62207 7.99121 7.15723 7.56738L6.34375 6.83594L2.44727 10.7324H2.48145Z" fill="white"/>
</svg>
