<svg width="15" height="15" viewBox="0 0 15 15" fill="none" xmlns="http://www.w3.org/2000/svg">
<path d="M7.21875 14.4375C3.2334 14.4375 0 11.2041 0 7.21875C0 3.2334 3.2334 0 7.21875 0C11.2041 0 14.4375 3.2334 14.4375 7.21875C14.4375 11.2041 11.2041 14.4375 7.21875 14.4375ZM7.21875 12.6396C10.2197 12.6396 12.6396 10.2129 12.6396 7.21875C12.6396 4.21777 10.2197 1.79785 7.21875 1.79785C4.22461 1.79785 1.79785 4.21777 1.79785 7.21875C1.79785 10.2129 4.22461 12.6396 7.21875 12.6396ZM7.04785 8.49023C6.51465 8.49023 6.2207 8.26465 6.2207 7.82715V7.77246C6.2207 7.23926 6.54883 6.9043 7.02734 6.57617C7.57422 6.19336 7.86133 6.00879 7.86133 5.62598C7.86133 5.27051 7.55371 4.99023 7.11621 4.99023C6.78809 4.99023 6.52148 5.13379 6.30273 5.46191L6.2207 5.56445C6.07031 5.76953 5.86523 5.87207 5.58496 5.87207C5.21582 5.87207 4.93555 5.59863 4.93555 5.22949C4.93555 5.08594 4.96289 4.96289 5.01074 4.83301C5.27051 4.17676 6.09766 3.67773 7.2666 3.67773C8.56543 3.67773 9.61133 4.39551 9.61133 5.53711C9.61133 6.28906 9.24219 6.67188 8.54492 7.11621C8.15527 7.36914 7.88184 7.58789 7.83398 7.89551C7.82715 7.91602 7.82031 7.9502 7.82031 7.9707C7.77246 8.27148 7.47168 8.49023 7.04785 8.49023ZM7.04102 10.6846C6.52832 10.6846 6.125 10.3564 6.125 9.86426C6.125 9.37207 6.52832 9.04395 7.04102 9.04395C7.55371 9.04395 7.9502 9.37207 7.9502 9.86426C7.9502 10.3564 7.55371 10.6846 7.04102 10.6846Z" fill="white"/>
</svg>
