<svg width="15" height="15" viewBox="0 0 15 15" fill="none" xmlns="http://www.w3.org/2000/svg">
<path d="M7.21875 14.4375C3.2334 14.4375 0 11.2041 0 7.21875C0 3.2334 3.2334 0 7.21875 0C11.2041 0 14.4375 3.2334 14.4375 7.21875C14.4375 11.2041 11.2041 14.4375 7.21875 14.4375ZM7.21875 13.0498C10.4385 13.0498 13.0498 10.4385 13.0498 7.21875C13.0498 5.20898 12.0312 3.43848 10.4932 2.39258C9.95996 3.21289 8.70898 3.80078 8.05273 4.12207C8.2168 4.41602 8.35352 4.66895 8.35352 4.93555C8.35352 5.33203 8.1416 5.60547 7.7041 5.60547C7.16406 5.60547 6.6377 5.0791 6.30957 5.0791C6.125 5.0791 5.97461 5.1748 5.97461 5.35938C5.97461 5.69434 6.82227 6.44629 7.20508 6.44629C7.59473 6.44629 8.12109 5.96777 8.45605 5.96777C9.22852 5.96777 10.6914 7.25293 10.6914 7.90918C10.6914 9.07129 8.31934 12.1816 7.45117 12.1816C7.02051 12.1816 6.53516 11.7715 6.53516 11.4023C6.53516 10.9854 6.80176 10.6504 6.79492 10.2061C6.79492 9.95312 6.55566 9.85059 5.44141 9.0166C5.09277 8.75684 4.92871 8.46973 4.92871 8.12793C4.92871 7.75195 5.27051 7.56055 5.27051 7.2666C5.27051 7.08887 5.08594 6.95215 4.76465 6.67871L3.78711 5.82422C2.91895 5.07227 2.50879 4.44336 2.50195 3.79395C1.80469 4.75781 1.3877 5.94043 1.3877 7.21875C1.3877 10.4385 4.00586 13.0498 7.21875 13.0498Z" fill="white"/>
</svg>
