<svg width="17" height="16" viewBox="0 0 17 16" fill="none" xmlns="http://www.w3.org/2000/svg">
<path d="M2.39941 15.0459C0.847656 15.0459 0 14.1982 0 12.6328V2.41309C0 0.854492 0.847656 0 2.39941 0H9.7207C11.2725 0 12.1201 0.854492 12.1201 2.41309V5.42773H10.3564V2.61133C10.3564 2.05762 10.0898 1.76367 9.50879 1.76367H2.61133C2.03027 1.76367 1.76367 2.05762 1.76367 2.61133V12.4414C1.76367 12.9883 2.03027 13.2822 2.61133 13.2822H9.50879C10.0898 13.2822 10.3564 12.9883 10.3564 12.4414V9.61133H12.1201V12.6328C12.1201 14.1982 11.2725 15.0459 9.7207 15.0459H2.39941ZM6.33691 7.51953C6.33691 7.0752 6.69922 6.72656 7.11621 6.72656H13.8223L14.8203 6.79492L14.335 6.47363L13.4395 5.63965C13.2959 5.50977 13.2139 5.31836 13.2139 5.12012C13.2139 4.76465 13.4873 4.44336 13.877 4.44336C14.0752 4.44336 14.2188 4.51855 14.3555 4.65527L16.5088 6.89062C16.7139 7.10254 16.7822 7.30762 16.7822 7.51953C16.7822 7.73145 16.7139 7.93652 16.5088 8.1416L14.3555 10.3838C14.2188 10.5205 14.0752 10.5957 13.877 10.5957C13.4873 10.5957 13.2139 10.2676 13.2139 9.91211C13.2139 9.71387 13.2959 9.5293 13.4395 9.39258L14.335 8.55859L14.8203 8.24414L13.8223 8.30566H7.11621C6.69922 8.30566 6.33691 7.95703 6.33691 7.51953Z" fill="white"/>
</svg>
