<svg width="15" height="18" viewBox="0 0 15 18" fill="none" xmlns="http://www.w3.org/2000/svg">
<path d="M0 15.3125V6.09082C0 4.53223 0.847656 3.67773 2.39941 3.67773H3.5V2.41309C3.5 0.854492 4.34766 0 5.89941 0H12.25C13.8018 0 14.6426 0.854492 14.6426 2.41309V11.6416C14.6426 13.2002 13.8018 14.0547 12.25 14.0547H11.1494V15.3125C11.1494 16.8711 10.3018 17.7256 8.75 17.7256H2.39941C0.847656 17.7256 0 16.8779 0 15.3125ZM7.54004 2.63184H10.6025C10.9102 2.63184 11.1084 2.39941 11.1084 2.14648V1.97559C11.1084 1.77051 10.9512 1.49023 10.6025 1.49023H7.54004C7.19824 1.49023 7.03418 1.77051 7.03418 1.97559V2.14648C7.03418 2.39941 7.23242 2.63184 7.54004 2.63184ZM1.76367 15.1211C1.76367 15.6748 2.03027 15.9619 2.61133 15.9619H8.53125C9.1123 15.9619 9.38574 15.6748 9.38574 15.1211V10.5342H6.21387C5.03125 10.5342 4.46387 9.98047 4.46387 8.79102V5.44141H2.61133C2.03027 5.44141 1.76367 5.73535 1.76367 6.28223V15.1211ZM6.34375 9.0918H9.24219L5.91309 5.72168V8.6543C5.91309 8.95508 6.0498 9.0918 6.34375 9.0918Z" fill="white"/>
</svg>
