<svg width="15" height="15" viewBox="0 0 15 15" fill="none" xmlns="http://www.w3.org/2000/svg">
<path d="M7.21875 14.4375C3.2334 14.4375 0 11.2041 0 7.21875C0 3.2334 3.2334 0 7.21875 0C11.2041 0 14.4375 3.2334 14.4375 7.21875C14.4375 11.2041 11.2041 14.4375 7.21875 14.4375ZM7.21875 12.6396C10.2197 12.6396 12.6396 10.2129 12.6396 7.21875C12.6396 4.21777 10.2197 1.79785 7.21875 1.79785C4.22461 1.79785 1.79785 4.21777 1.79785 7.21875C1.79785 10.2129 4.22461 12.6396 7.21875 12.6396ZM7.21875 6.93848C6.27539 6.93848 5.5166 6.14551 5.5166 5.08594C5.5166 4.09473 6.27539 3.27441 7.21875 3.27441C8.15527 3.27441 8.91406 4.09473 8.91406 5.08594C8.91406 6.14551 8.15527 6.94531 7.21875 6.93848ZM4.36133 10.5547C4.01953 10.5547 3.84863 10.3154 3.84863 10.0078C3.84863 9.2832 4.8877 7.44434 7.21875 7.44434C9.54297 7.44434 10.582 9.2832 10.582 10.0078C10.582 10.3154 10.4111 10.5547 10.0693 10.5547H4.36133Z" fill="white"/>
</svg>
