<svg width="16" height="16" viewBox="0 0 16 16" fill="none" xmlns="http://www.w3.org/2000/svg">
<path d="M6.91797 15.2305C6.28223 15.2305 5.76953 14.8271 5.63281 14.2188L5.37988 13.1318L5.26367 13.0908L4.31348 13.6787C3.78027 14 3.14453 13.918 2.69336 13.4668L1.72949 12.5098C1.27148 12.0518 1.20312 11.4092 1.53125 10.8896L2.11914 9.94629L2.07812 9.83691L0.998047 9.58398C0.396484 9.44043 0 8.92773 0 8.29883V6.95898C0 6.33008 0.389648 5.81738 0.998047 5.66699L2.07129 5.40723L2.1123 5.29785L1.52441 4.35449C1.20312 3.83496 1.26465 3.19238 1.72949 2.72754L2.69336 1.77051C3.1377 1.32617 3.77344 1.2373 4.30664 1.55859L5.25684 2.13965L5.37988 2.09863L5.63281 1.01172C5.76953 0.410156 6.28223 0 6.91797 0H8.3125C8.94824 0 9.46094 0.40332 9.59766 1.01172L9.85059 2.09863L9.97363 2.13965L10.9238 1.55859C11.457 1.23047 12.0928 1.32617 12.5371 1.77051L13.501 2.72754C13.9658 3.19238 14.0273 3.83496 13.7061 4.35449L13.1182 5.29785L13.166 5.40723L14.2324 5.66699C14.8408 5.81738 15.2305 6.33008 15.2305 6.95898V8.29883C15.2305 8.92773 14.834 9.44043 14.2324 9.58398L13.1523 9.83691L13.1182 9.94629L13.6992 10.8896C14.0273 11.4092 13.959 12.0518 13.501 12.5098L12.5371 13.4668C12.0859 13.918 11.4502 14 10.917 13.6787L9.9668 13.0908L9.85059 13.1318L9.59766 14.2188C9.46094 14.8271 8.94824 15.2305 8.3125 15.2305H6.91797ZM7.19141 13.6855H8.03906C8.15527 13.6855 8.20312 13.6309 8.22363 13.5352L8.62012 11.8672C9.12598 11.7646 9.5293 11.5869 9.93945 11.3203L11.3887 12.2158C11.4707 12.2637 11.5527 12.2705 11.6279 12.1885L12.2158 11.6006C12.2979 11.5254 12.291 11.4434 12.2432 11.3613L11.3477 9.91211C11.5869 9.5293 11.7783 9.06445 11.874 8.61328L13.542 8.2168C13.6377 8.19629 13.6924 8.14844 13.6924 8.03223V7.21875C13.6924 7.0957 13.6445 7.04785 13.542 7.02734L11.874 6.63086C11.7783 6.16602 11.5801 5.70117 11.3545 5.3252L12.2432 3.88281C12.2979 3.79395 12.3047 3.71875 12.2295 3.63672L11.6348 3.05566C11.5527 2.98047 11.4844 2.97363 11.3887 3.02832L9.93945 3.91016C9.5498 3.6709 9.10547 3.47266 8.62012 3.37012L8.22363 1.69531C8.20312 1.59961 8.15527 1.54492 8.03906 1.54492H7.19141C7.08203 1.54492 7.02734 1.59961 7.01367 1.69531L6.61719 3.36328C6.13184 3.47266 5.61914 3.68457 5.28418 3.91016L3.83496 3.02148C3.73926 2.9668 3.6709 2.97363 3.58887 3.04883L2.99414 3.62988C2.91895 3.70508 2.92578 3.78711 2.98047 3.86914L3.87598 5.3252C3.65039 5.70117 3.45898 6.16602 3.35645 6.6377L1.68848 7.02734C1.59277 7.04785 1.53809 7.0957 1.53809 7.21875V8.03223C1.53809 8.14844 1.59277 8.19629 1.68848 8.2168L3.35645 8.60645C3.45215 9.07129 3.64355 9.51562 3.88281 9.91211L2.98047 11.3682C2.93262 11.4502 2.92578 11.5322 3.00781 11.6074L3.5957 12.1953C3.6709 12.2705 3.75293 12.2773 3.83496 12.2227L5.29102 11.3203C5.69434 11.5869 6.15234 11.7783 6.61719 11.8672L7.01367 13.5352C7.02734 13.6309 7.08203 13.6855 7.19141 13.6855ZM7.61523 10.1855C6.19336 10.1855 5.04492 9.03711 5.04492 7.61523C5.04492 6.19336 6.19336 5.04492 7.61523 5.04492C9.03027 5.04492 10.1855 6.19336 10.1855 7.61523C10.1855 9.03711 9.03027 10.1855 7.61523 10.1855ZM7.61523 8.81152C8.27148 8.81152 8.81152 8.27832 8.81152 7.61523C8.81152 6.95215 8.27148 6.41895 7.61523 6.41895C6.95215 6.41895 6.41895 6.95215 6.41895 7.61523C6.41895 8.27832 6.95215 8.81152 7.61523 8.81152Z" fill="white"/>
</svg>
