<svg width="14" height="16" viewBox="0 0 14 16" fill="none" xmlns="http://www.w3.org/2000/svg">
<path d="M6.05664 3.41797C5.94727 3.41797 5.87891 3.34277 5.86523 3.24023C5.6875 2.13965 5.69434 2.1123 4.53223 1.90723C4.41602 1.88672 4.34766 1.81836 4.34766 1.70898C4.34766 1.60645 4.41602 1.53809 4.51855 1.51758C5.70117 1.29199 5.69434 1.26465 5.86523 0.18457C5.87891 0.0751953 5.94727 0 6.05664 0C6.16602 0 6.23438 0.0751953 6.25488 0.177734C6.43262 1.29199 6.41895 1.32617 7.59473 1.51758C7.69727 1.53125 7.77246 1.60645 7.77246 1.70898C7.77246 1.81836 7.7041 1.88672 7.59473 1.90723C6.41895 2.13281 6.43945 2.15332 6.25488 3.24707C6.23438 3.34277 6.16602 3.41797 6.05664 3.41797ZM2.73438 8.32617C2.57031 8.32617 2.44727 8.20996 2.42676 8.03223C2.20801 6.24805 2.14648 6.18652 0.307617 5.90625C0.116211 5.87891 0 5.76953 0 5.59863C0 5.43457 0.116211 5.31836 0.273438 5.29102C2.14648 4.94922 2.20801 4.94238 2.42676 3.16504C2.44727 2.9873 2.57031 2.87109 2.73438 2.87109C2.89844 2.87109 3.02148 2.9873 3.04199 3.1582C3.27441 4.99023 3.3291 5.03809 5.19531 5.29102C5.35254 5.31152 5.46875 5.43457 5.46875 5.59863C5.46875 5.7627 5.35254 5.87891 5.19531 5.90625C3.31543 6.24805 3.27441 6.26172 3.04199 8.05273C3.02148 8.20996 2.8916 8.32617 2.73438 8.32617ZM7.62891 15.9346C7.3623 15.9346 7.15723 15.7432 7.10938 15.4629C6.54199 11.833 6.08398 11.3818 2.5498 10.8965C2.2627 10.8555 2.06445 10.6436 2.06445 10.3701C2.06445 10.0967 2.26953 9.87793 2.55664 9.84375C6.09766 9.44727 6.60352 8.90723 7.10938 5.28418C7.15039 5.00391 7.3623 4.8125 7.62891 4.8125C7.88867 4.8125 8.10059 5.00391 8.14844 5.28418C8.69531 8.90723 9.16699 9.40625 12.708 9.84375C12.9883 9.88477 13.1934 10.1035 13.1934 10.3701C13.1934 10.6436 12.9883 10.8691 12.7012 10.8965C9.15332 11.2998 8.64746 11.833 8.14844 15.4629C8.10059 15.7432 7.89551 15.9346 7.62891 15.9346Z" fill="white"/>
</svg>
